<?xml version="1.0" encoding="utf-8" ?>
<svg baseProfile="full" height="100%" version="1.1" width="100%" xmlns="http://www.w3.org/2000/svg" xmlns:ev="http://www.w3.org/2001/xml-events" xmlns:xlink="http://www.w3.org/1999/xlink"><defs /><polygon fill="black" points="3259,1882 3259,2542 3324,2542 3325,2541 3325,1882" /><polygon fill="black" points="3149,1882 3149,2542 3215,2542 3215,1882" /><polygon fill="black" points="3094,1882 3093,1883 3093,2541 3094,2542 3116,2542 3116,1882" /><polygon fill="black" points="3042,1882 3042,2542 3065,2542 3065,1882" /><polygon fill="black" points="2920,1882 2920,2542 2943,2542 2943,1882" /><polygon fill="black" points="2863,1882 2863,2542 2887,2542 2887,1882" /><polygon fill="black" points="2813,1882 2813,2542 2836,2542 2836,1882" /><polygon fill="black" points="2681,1882 2681,2542 2747,2542 2747,1882" /><polygon fill="black" points="2629,1882 2629,2542 2652,2542 2652,1882" /><polygon fill="black" points="2555,1882 2555,2542 2579,2542 2579,1882" /><polygon fill="black" points="2446,1882 2446,2542 2511,2542 2511,1882" /><polygon fill="black" points="2349,1882 2349,2542 2415,2542 2415,1882" /><polygon fill="black" points="2290,1882 2290,2541 2291,2542 2313,2542 2313,1882" /><polygon fill="black" points="2246,1882 2246,2542 2268,2542 2268,1882" /><polygon fill="black" points="2158,1882 2158,2542 2181,2542 2181,1882" /><polygon fill="black" points="2100,1882 2100,2542 2123,2542 2123,1882" /><polygon fill="black" points="1974,1882 1974,2542 1997,2542 1997,1882" /><polygon fill="black" points="1863,1882 1863,2541 1864,2542 1929,2542 1929,1882" /><polygon fill="black" points="1816,1882 1816,2541 1817,2542 1840,2542 1840,1882" /><polygon fill="black" points="1733,1882 1733,2542 1756,2542 1756,1882" /><polygon fill="black" points="1676,1882 1676,2542 1699,2542 1699,1882" /><polygon fill="black" points="1561,1882 1561,2542 1627,2542 1628,2541 1628,1882" /><polygon fill="black" points="1424,1882 1424,2542 1490,2542 1490,1882" /><polygon fill="black" points="1375,1882 1375,2542 1398,2542 1398,1882" /><polygon fill="black" points="1310,1882 1310,2542 1333,2542 1333,1882" /><polygon fill="black" points="1197,1882 1197,2541 1198,2542 1220,2542 1220,1882" /><polygon fill="black" points="1100,1882 1100,2542 1167,2542 1167,1882" /><polygon fill="black" points="1049,1882 1049,2542 1072,2542 1072,1882" /><polygon fill="black" points="965,1882 965,2542 988,2542 988,1882" /><polygon fill="black" points="867,1882 867,2542 932,2542 933,2541 933,1882" /><polygon fill="black" points="791,1882 791,2542 813,2542 814,2541 814,1883 813,1882" /><polygon fill="black" points="683,1882 683,2542 748,2542 748,1882" /><polygon fill="black" points="623,1882 623,2542 646,2542 646,1882" /><polygon fill="black" points="546,1882 546,2542 569,2542 569,1882" /><polygon fill="black" points="402,1882 402,2542 468,2542 468,1882" /><polygon fill="black" points="337,1882 337,2542 361,2542 361,1882" /><polygon fill="black" points="242,1882 242,2542 307,2542 307,1882" /><polygon fill="black" points="191,1882 191,2542 214,2542 214,1882" /><polygon fill="black" points="3056,1525 3055,1526 3051,1526 3050,1527 3047,1527 3046,1528 3044,1528 3043,1529 3041,1529 3040,1530 3039,1530 3038,1531 3036,1531 3034,1533 3033,1533 3032,1534 3031,1534 3029,1536 3028,1536 3026,1538 3025,1538 3014,1549 3014,1550 3011,1553 3011,1554 3010,1555 3010,1556 3008,1558 3008,1559 3007,1560 3007,1561 3006,1562 3006,1564 3005,1565 3005,1567 3004,1568 3004,1570 3003,1571 3003,1574 3002,1575 3002,1586 3001,1587 3001,1589 3002,1590 3001,1591 3001,1614 3002,1615 3001,1616 3001,1642 3002,1643 3002,1644 3001,1645 3002,1646 3002,1657 3003,1658 3003,1662 3004,1663 3004,1665 3005,1666 3005,1668 3006,1669 3006,1671 3007,1672 3007,1673 3008,1674 3008,1675 3010,1677 3010,1678 3012,1680 3012,1681 3015,1684 3015,1685 3024,1694 3025,1694 3028,1697 3029,1697 3031,1699 3032,1699 3033,1700 3034,1700 3036,1702 3038,1702 3039,1703 3040,1703 3041,1704 3042,1704 3043,1705 3046,1705 3047,1706 3049,1706 3050,1707 3054,1707 3055,1708 3250,1708 3251,1709 3251,1761 3250,1762 3071,1762 3070,1761 3070,1737 3001,1737 3001,1764 3002,1765 3002,1776 3003,1777 3003,1780 3004,1781 3004,1784 3005,1785 3005,1786 3006,1787 3006,1789 3007,1790 3007,1791 3008,1792 3008,1793 3009,1794 3009,1795 3011,1797 3011,1798 3013,1800 3013,1801 3018,1806 3018,1807 3021,1810 3022,1810 3026,1814 3027,1814 3030,1817 3031,1817 3032,1818 3033,1818 3035,1820 3036,1820 3037,1821 3039,1821 3040,1822 3041,1822 3042,1823 3044,1823 3045,1824 3047,1824 3048,1825 3051,1825 3052,1826 3058,1826 3059,1827 3262,1827 3263,1826 3268,1826 3269,1825 3274,1825 3275,1824 3277,1824 3278,1823 3279,1823 3280,1822 3282,1822 3283,1821 3284,1821 3285,1820 3286,1820 3287,1819 3288,1819 3290,1817 3291,1817 3293,1815 3294,1815 3297,1812 3298,1812 3306,1804 3306,1803 3310,1799 3310,1798 3311,1797 3311,1796 3313,1794 3313,1793 3314,1792 3314,1791 3315,1790 3315,1789 3316,1788 3316,1786 3317,1785 3317,1783 3318,1782 3318,1779 3319,1778 3319,1774 3320,1773 3320,1697 3319,1696 3319,1691 3318,1690 3318,1688 3317,1687 3317,1685 3316,1684 3316,1682 3315,1681 3315,1680 3314,1679 3314,1678 3313,1677 3313,1676 3312,1675 3312,1674 3310,1672 3310,1671 3306,1667 3306,1666 3298,1658 3297,1658 3294,1655 3293,1655 3291,1653 3290,1653 3288,1651 3287,1651 3286,1650 3285,1650 3284,1649 3283,1649 3282,1648 3281,1648 3280,1647 3277,1647 3276,1646 3275,1646 3274,1645 3269,1645 3268,1644 3263,1644 3262,1643 3071,1643 3070,1642 3070,1591 3071,1590 3250,1590 3251,1591 3251,1615 3320,1615 3320,1579 3319,1578 3319,1573 3318,1572 3318,1569 3317,1568 3317,1566 3316,1565 3316,1564 3315,1563 3315,1561 3314,1560 3314,1559 3312,1557 3312,1556 3311,1555 3311,1554 3309,1552 3309,1551 3296,1538 3295,1538 3292,1535 3291,1535 3290,1534 3289,1534 3287,1532 3286,1532 3285,1531 3284,1531 3283,1530 3281,1530 3280,1529 3279,1529 3278,1528 3276,1528 3275,1527 3272,1527 3271,1526 3266,1526 3265,1525" /><polygon fill="black" points="2639,1525 2639,1827 2707,1827 2707,1731 2708,1730 2708,1729 2709,1728 2788,1728 2789,1727 2798,1727 2799,1728 2799,1729 2806,1736 2806,1737 2814,1745 2814,1746 2821,1753 2821,1754 2829,1762 2829,1763 2837,1771 2837,1772 2844,1779 2844,1780 2852,1788 2852,1789 2860,1797 2860,1798 2867,1805 2867,1806 2875,1814 2875,1815 2883,1823 2883,1824 2886,1827 2957,1827 2957,1804 2951,1798 2951,1797 2943,1789 2943,1788 2934,1779 2934,1778 2926,1770 2926,1769 2917,1760 2917,1759 2909,1751 2909,1750 2901,1742 2901,1741 2892,1732 2892,1731 2889,1728 2890,1727 2900,1727 2901,1726 2906,1726 2907,1725 2911,1725 2912,1724 2914,1724 2915,1723 2917,1723 2918,1722 2919,1722 2920,1721 2921,1721 2922,1720 2923,1720 2924,1719 2925,1719 2927,1717 2928,1717 2930,1715 2931,1715 2933,1713 2934,1713 2945,1702 2945,1701 2947,1699 2947,1698 2949,1696 2949,1695 2950,1694 2950,1693 2952,1691 2952,1689 2953,1688 2953,1687 2954,1686 2954,1684 2955,1683 2955,1680 2956,1679 2956,1675 2957,1674 2957,1579 2956,1578 2956,1573 2955,1572 2955,1569 2954,1568 2954,1566 2953,1565 2953,1564 2952,1563 2952,1562 2951,1561 2951,1560 2950,1559 2950,1558 2949,1557 2949,1556 2947,1554 2947,1553 2944,1550 2944,1549 2935,1540 2934,1540 2930,1536 2929,1536 2928,1535 2927,1535 2925,1533 2924,1533 2923,1532 2922,1532 2921,1531 2920,1531 2919,1530 2918,1530 2917,1529 2915,1529 2914,1528 2912,1528 2911,1527 2907,1527 2906,1526 2901,1526 2900,1525" /><polygon fill="black" points="2300,1525 2300,1827 2594,1827 2594,1762 2371,1762 2370,1761 2370,1709 2371,1708 2550,1708 2550,1643 2371,1643 2370,1642 2370,1591 2371,1590 2594,1590 2594,1525" /><polygon fill="black" points="1930,1525 1930,1827 2190,1827 2191,1826 2197,1826 2198,1825 2202,1825 2203,1824 2205,1824 2206,1823 2208,1823 2209,1822 2210,1822 2211,1821 2212,1821 2213,1820 2214,1820 2215,1819 2216,1819 2217,1818 2218,1818 2220,1816 2221,1816 2223,1814 2224,1814 2237,1801 2237,1800 2239,1798 2239,1797 2241,1795 2241,1794 2242,1793 2242,1792 2243,1791 2243,1790 2244,1789 2244,1787 2245,1786 2245,1785 2246,1784 2246,1782 2247,1781 2247,1778 2248,1777 2248,1769 2249,1768 2249,1583 2248,1582 2248,1575 2247,1574 2247,1571 2246,1570 2246,1568 2245,1567 2245,1565 2244,1564 2244,1562 2243,1561 2243,1560 2242,1559 2242,1558 2240,1556 2240,1555 2238,1553 2238,1552 2235,1549 2235,1548 2227,1540 2226,1540 2223,1537 2222,1537 2219,1534 2218,1534 2217,1533 2216,1533 2215,1532 2214,1532 2213,1531 2212,1531 2211,1530 2210,1530 2209,1529 2207,1529 2206,1528 2204,1528 2203,1527 2200,1527 2199,1526 2195,1526 2194,1525" /><polygon fill="black" points="1561,1525 1561,1827 1629,1827 1629,1627 1630,1626 1638,1634 1638,1635 1646,1643 1646,1644 1653,1651 1653,1652 1661,1660 1661,1661 1669,1669 1669,1670 1676,1677 1676,1678 1684,1686 1684,1687 1692,1695 1692,1696 1699,1703 1699,1704 1707,1712 1707,1713 1715,1721 1715,1722 1723,1730 1723,1731 1730,1738 1730,1739 1738,1747 1738,1748 1746,1756 1746,1757 1753,1764 1753,1765 1761,1773 1761,1774 1769,1782 1769,1783 1777,1791 1777,1792 1784,1799 1784,1800 1792,1808 1792,1809 1800,1817 1800,1818 1807,1825 1807,1826 1808,1826 1809,1827 1879,1827 1879,1525 1810,1525 1810,1724 1809,1725 1807,1723 1807,1722 1799,1714 1799,1713 1792,1706 1792,1705 1784,1697 1784,1696 1777,1689 1777,1688 1769,1680 1769,1679 1761,1671 1761,1670 1754,1663 1754,1662 1746,1654 1746,1653 1739,1646 1739,1645 1731,1637 1731,1636 1723,1628 1723,1627 1716,1620 1716,1619 1708,1611 1708,1610 1701,1603 1701,1602 1693,1594 1693,1593 1685,1585 1685,1584 1678,1577 1678,1576 1670,1568 1670,1567 1663,1560 1663,1559 1655,1551 1655,1550 1647,1542 1647,1541 1640,1534 1640,1533 1632,1525" /><polygon fill="black" points="1222,1525 1222,1827 1516,1827 1516,1762 1292,1762 1291,1761 1291,1709 1292,1708 1472,1708 1472,1643 1292,1643 1291,1642 1291,1591 1292,1590 1516,1590 1516,1525" /><polygon fill="black" points="901,1525 901,1589 902,1590 901,1591 901,1642 902,1643 901,1644 901,1826 902,1827 971,1827 971,1709 972,1708 1152,1708 1152,1643 972,1643 971,1642 971,1591 972,1590 1196,1590 1196,1525" /><polygon fill="black" points="562,1525 562,1827 856,1827 856,1762 632,1762 631,1761 631,1709 632,1708 812,1708 812,1643 632,1643 631,1642 631,1591 632,1590 856,1590 856,1525" /><polygon fill="black" points="192,1525 192,1827 452,1827 453,1826 458,1826 459,1825 463,1825 464,1824 466,1824 467,1823 469,1823 470,1822 471,1822 472,1821 474,1821 475,1820 476,1820 477,1819 478,1819 480,1817 481,1817 483,1815 484,1815 487,1812 488,1812 496,1804 496,1803 500,1799 500,1798 501,1797 501,1796 503,1794 503,1793 504,1792 504,1791 505,1790 505,1789 506,1788 506,1786 507,1785 507,1784 508,1783 508,1780 509,1779 509,1775 510,1774 510,1578 509,1577 509,1573 508,1572 508,1569 507,1568 507,1566 506,1565 506,1563 505,1562 505,1561 504,1560 504,1559 503,1558 503,1557 501,1555 501,1554 499,1552 499,1551 486,1538 485,1538 482,1535 481,1535 480,1534 479,1534 477,1532 476,1532 475,1531 474,1531 473,1530 471,1530 470,1529 469,1529 468,1528 466,1528 465,1527 462,1527 461,1526 456,1526 455,1525" /><polygon fill="black" points="3070,1169 3069,1170 3063,1170 3062,1171 3058,1171 3057,1172 3055,1172 3054,1173 3052,1173 3051,1174 3050,1174 3049,1175 3047,1175 3046,1176 3045,1176 3043,1178 3042,1178 3041,1179 3040,1179 3037,1182 3036,1182 3025,1193 3025,1194 3022,1197 3022,1198 3021,1199 3021,1200 3020,1201 3020,1202 3019,1203 3019,1204 3018,1205 3018,1206 3017,1207 3017,1208 3016,1209 3016,1211 3015,1212 3015,1215 3014,1216 3014,1219 3013,1220 3013,1230 3012,1231 3012,1291 3013,1292 3013,1303 3014,1304 3014,1307 3015,1308 3015,1311 3016,1312 3016,1314 3017,1315 3017,1316 3018,1317 3018,1318 3019,1319 3019,1320 3020,1321 3020,1322 3021,1323 3021,1324 3023,1326 3023,1327 3026,1330 3026,1331 3034,1339 3035,1339 3038,1342 3039,1342 3041,1344 3042,1344 3044,1346 3045,1346 3046,1347 3047,1347 3048,1348 3049,1348 3050,1349 3052,1349 3053,1350 3055,1350 3056,1351 3059,1351 3060,1352 3064,1352 3065,1353 3248,1353 3249,1354 3249,1405 3248,1406 3079,1406 3078,1405 3078,1382 3012,1382 3012,1409 3013,1410 3013,1421 3014,1422 3014,1426 3015,1427 3015,1429 3016,1430 3016,1432 3017,1433 3017,1435 3018,1436 3018,1437 3019,1438 3019,1439 3020,1440 3020,1441 3022,1443 3022,1444 3024,1446 3024,1447 3036,1459 3037,1459 3040,1462 3041,1462 3042,1463 3043,1463 3045,1465 3046,1465 3047,1466 3048,1466 3049,1467 3050,1467 3051,1468 3054,1468 3055,1469 3057,1469 3058,1470 3061,1470 3062,1471 3068,1471 3069,1472 3260,1472 3261,1471 3266,1471 3267,1470 3271,1470 3272,1469 3273,1469 3274,1468 3276,1468 3277,1467 3278,1467 3279,1466 3280,1466 3281,1465 3282,1465 3283,1464 3284,1464 3285,1463 3286,1463 3288,1461 3289,1461 3293,1457 3294,1457 3299,1452 3299,1451 3304,1446 3304,1445 3306,1443 3306,1442 3307,1441 3307,1440 3308,1439 3308,1438 3309,1437 3309,1436 3310,1435 3310,1434 3311,1433 3311,1431 3312,1430 3312,1428 3313,1427 3313,1424 3314,1423 3314,1418 3315,1417 3315,1343 3314,1342 3314,1337 3313,1336 3313,1333 3312,1332 3312,1330 3311,1329 3311,1327 3310,1326 3310,1325 3309,1324 3309,1323 3308,1322 3308,1321 3307,1320 3307,1319 3306,1318 3306,1317 3304,1315 3304,1314 3301,1311 3301,1310 3292,1301 3291,1301 3288,1298 3287,1298 3286,1297 3285,1297 3283,1295 3282,1295 3281,1294 3280,1294 3279,1293 3278,1293 3277,1292 3275,1292 3274,1291 3272,1291 3271,1290 3268,1290 3267,1289 3263,1289 3262,1288 3079,1288 3078,1287 3078,1236 3079,1235 3248,1235 3249,1236 3249,1260 3315,1260 3315,1224 3314,1223 3314,1218 3313,1217 3313,1214 3312,1213 3312,1211 3311,1210 3311,1208 3310,1207 3310,1206 3309,1205 3309,1204 3308,1203 3308,1202 3307,1201 3307,1200 3305,1198 3305,1197 3302,1194 3302,1193 3290,1181 3289,1181 3287,1179 3286,1179 3284,1177 3283,1177 3282,1176 3281,1176 3280,1175 3279,1175 3278,1174 3277,1174 3276,1173 3274,1173 3273,1172 3271,1172 3270,1171 3266,1171 3265,1170 3259,1170 3258,1169" /><polygon fill="black" points="2666,1169 2666,1419 2667,1420 2667,1425 2668,1426 2668,1429 2669,1430 2669,1431 2670,1432 2670,1434 2671,1435 2671,1436 2672,1437 2672,1438 2673,1439 2673,1440 2674,1441 2674,1442 2676,1444 2676,1445 2678,1447 2678,1448 2689,1459 2690,1459 2693,1462 2694,1462 2695,1463 2696,1463 2698,1465 2699,1465 2700,1466 2701,1466 2702,1467 2703,1467 2704,1468 2707,1468 2708,1469 2710,1469 2711,1470 2714,1470 2715,1471 2722,1471 2723,1472 2913,1472 2914,1471 2919,1471 2920,1470 2924,1470 2925,1469 2927,1469 2928,1468 2930,1468 2931,1467 2932,1467 2933,1466 2934,1466 2935,1465 2936,1465 2938,1463 2939,1463 2940,1462 2941,1462 2944,1459 2945,1459 2955,1449 2955,1448 2958,1445 2958,1444 2959,1443 2959,1442 2961,1440 2961,1439 2962,1438 2962,1437 2963,1436 2963,1435 2964,1434 2964,1432 2965,1431 2965,1429 2966,1428 2966,1425 2967,1424 2967,1420 2968,1419 2968,1169 2902,1169 2902,1405 2901,1406 2732,1406 2731,1405 2731,1169" /><polygon fill="black" points="2375,1169 2374,1170 2368,1170 2367,1171 2363,1171 2362,1172 2360,1172 2359,1173 2357,1173 2356,1174 2355,1174 2354,1175 2352,1175 2351,1176 2350,1176 2348,1178 2347,1178 2346,1179 2345,1179 2342,1182 2341,1182 2331,1192 2331,1193 2328,1196 2328,1197 2327,1198 2327,1199 2325,1201 2325,1202 2324,1203 2324,1204 2323,1205 2323,1206 2322,1207 2322,1209 2321,1210 2321,1212 2320,1213 2320,1216 2319,1217 2319,1221 2318,1222 2318,1419 2319,1420 2319,1424 2320,1425 2320,1428 2321,1429 2321,1431 2322,1432 2322,1434 2323,1435 2323,1436 2324,1437 2324,1438 2325,1439 2325,1440 2326,1441 2326,1442 2328,1444 2328,1445 2330,1447 2330,1448 2341,1459 2342,1459 2345,1462 2346,1462 2347,1463 2348,1463 2350,1465 2351,1465 2352,1466 2353,1466 2354,1467 2356,1467 2357,1468 2359,1468 2360,1469 2362,1469 2363,1470 2366,1470 2367,1471 2374,1471 2375,1472 2565,1472 2566,1471 2571,1471 2572,1470 2576,1470 2577,1469 2579,1469 2580,1468 2582,1468 2583,1467 2584,1467 2585,1466 2586,1466 2587,1465 2588,1465 2590,1463 2591,1463 2592,1462 2593,1462 2596,1459 2597,1459 2607,1449 2607,1448 2610,1445 2610,1444 2611,1443 2611,1442 2613,1440 2613,1439 2614,1438 2614,1437 2615,1436 2615,1435 2616,1434 2616,1432 2617,1431 2617,1429 2618,1428 2618,1426 2619,1425 2619,1421 2620,1420 2620,1222 2619,1221 2619,1217 2618,1216 2618,1213 2617,1212 2617,1210 2616,1209 2616,1207 2615,1206 2615,1205 2614,1204 2614,1203 2612,1201 2612,1200 2611,1199 2611,1198 2609,1196 2609,1195 2604,1190 2604,1189 2598,1183 2597,1183 2594,1180 2593,1180 2591,1178 2590,1178 2589,1177 2588,1177 2587,1176 2586,1176 2585,1175 2584,1175 2583,1174 2582,1174 2581,1173 2579,1173 2578,1172 2576,1172 2575,1171 2571,1171 2570,1170 2564,1170 2563,1169" /><polygon fill="black" points="1929,1169 1929,1472 1994,1472 1994,1272 1995,1271 1996,1272 1996,1273 2002,1279 2002,1280 2007,1285 2007,1286 2013,1292 2013,1293 2018,1298 2018,1299 2024,1305 2024,1306 2029,1311 2029,1312 2035,1318 2035,1319 2040,1324 2040,1325 2046,1331 2046,1332 2051,1337 2051,1338 2056,1343 2056,1344 2062,1350 2062,1351 2067,1356 2067,1357 2073,1363 2073,1364 2078,1369 2078,1370 2084,1376 2084,1377 2089,1382 2089,1383 2095,1389 2095,1390 2098,1393 2099,1393 2101,1391 2101,1390 2107,1384 2107,1383 2112,1378 2112,1377 2117,1372 2117,1371 2122,1366 2122,1365 2127,1360 2127,1359 2133,1353 2133,1352 2138,1347 2138,1346 2143,1341 2143,1340 2148,1335 2148,1334 2153,1329 2153,1328 2159,1322 2159,1321 2164,1316 2164,1315 2169,1310 2169,1309 2174,1304 2174,1303 2179,1298 2179,1297 2185,1291 2185,1290 2190,1285 2190,1284 2195,1279 2195,1278 2200,1273 2200,1272 2202,1270 2203,1271 2203,1472 2268,1472 2268,1169 2201,1169 2195,1175 2195,1176 2190,1181 2190,1182 2185,1187 2185,1188 2180,1193 2180,1194 2175,1199 2175,1200 2170,1205 2170,1206 2165,1211 2165,1212 2160,1217 2160,1218 2155,1223 2155,1224 2150,1229 2150,1230 2145,1235 2145,1236 2140,1241 2140,1242 2135,1247 2135,1248 2130,1253 2130,1254 2125,1259 2125,1260 2120,1265 2120,1266 2115,1271 2115,1272 2110,1277 2110,1278 2105,1283 2105,1284 2100,1289 2100,1290 2099,1291 2098,1291 2096,1289 2096,1288 2091,1283 2091,1282 2086,1277 2086,1276 2080,1270 2080,1269 2076,1265 2076,1264 2070,1258 2070,1257 2065,1252 2065,1251 2060,1246 2060,1245 2055,1240 2055,1239 2050,1234 2050,1233 2045,1228 2045,1227 2040,1222 2040,1221 2035,1216 2035,1215 2030,1210 2030,1209 2024,1203 2024,1202 2019,1197 2019,1196 2014,1191 2014,1190 2009,1185 2009,1184 2004,1179 2004,1178 1999,1173 1999,1172 1996,1169" /><polygon fill="black" points="1573,1169 1573,1170 1575,1172 1575,1173 1578,1176 1578,1177 1580,1179 1580,1180 1583,1183 1583,1184 1586,1187 1586,1188 1589,1191 1589,1192 1591,1194 1591,1195 1594,1198 1594,1199 1597,1202 1597,1203 1599,1205 1599,1206 1602,1209 1602,1210 1605,1213 1605,1214 1608,1217 1608,1218 1610,1220 1610,1221 1613,1224 1613,1225 1616,1228 1616,1229 1619,1232 1619,1233 1621,1235 1621,1236 1624,1239 1624,1240 1627,1243 1627,1244 1630,1247 1630,1248 1632,1250 1632,1251 1635,1254 1635,1255 1638,1258 1638,1259 1641,1262 1641,1263 1643,1265 1643,1266 1646,1269 1646,1270 1649,1273 1649,1274 1652,1277 1652,1278 1654,1280 1654,1281 1657,1284 1657,1285 1660,1288 1660,1289 1663,1292 1663,1293 1666,1296 1666,1297 1669,1300 1669,1301 1672,1304 1672,1305 1675,1308 1675,1309 1678,1312 1678,1313 1681,1316 1681,1317 1684,1320 1684,1321 1687,1324 1687,1325 1690,1328 1690,1329 1693,1332 1693,1333 1695,1335 1695,1336 1698,1339 1698,1340 1701,1343 1701,1344 1704,1347 1704,1348 1707,1351 1707,1352 1710,1355 1710,1356 1713,1359 1713,1472 1778,1472 1778,1360 1779,1359 1779,1358 1782,1355 1782,1354 1785,1351 1785,1350 1788,1347 1788,1346 1791,1343 1791,1342 1793,1340 1793,1339 1796,1336 1796,1335 1799,1332 1799,1331 1802,1328 1802,1327 1805,1324 1805,1323 1808,1320 1808,1319 1810,1317 1810,1316 1813,1313 1813,1312 1816,1309 1816,1308 1819,1305 1819,1304 1822,1301 1822,1300 1825,1297 1825,1296 1827,1294 1827,1293 1830,1290 1830,1289 1833,1286 1833,1285 1836,1282 1836,1281 1839,1278 1839,1277 1842,1274 1842,1273 1844,1271 1844,1270 1847,1267 1847,1266 1850,1263 1850,1262 1853,1259 1853,1258 1856,1255 1856,1254 1858,1252 1858,1251 1861,1248 1861,1247 1864,1244 1864,1243 1867,1240 1867,1239 1870,1236 1870,1235 1873,1232 1873,1231 1875,1229 1875,1228 1878,1225 1878,1224 1881,1221 1881,1220 1884,1217 1884,1216 1887,1213 1887,1212 1890,1209 1890,1208 1892,1206 1892,1205 1895,1202 1895,1201 1898,1198 1898,1197 1901,1194 1901,1193 1904,1190 1904,1189 1907,1186 1907,1185 1909,1183 1909,1182 1912,1179 1912,1178 1915,1175 1915,1174 1918,1171 1918,1169 1840,1169 1838,1171 1838,1172 1834,1176 1834,1177 1830,1181 1830,1182 1827,1185 1827,1186 1823,1190 1823,1191 1819,1195 1819,1196 1815,1200 1815,1201 1811,1205 1811,1206 1808,1209 1808,1210 1804,1214 1804,1215 1800,1219 1800,1220 1796,1224 1796,1225 1792,1229 1792,1230 1789,1233 1789,1234 1785,1238 1785,1239 1781,1243 1781,1244 1777,1248 1777,1249 1773,1253 1773,1254 1770,1257 1770,1258 1766,1262 1766,1263 1762,1267 1762,1268 1758,1272 1758,1273 1754,1277 1754,1278 1751,1281 1751,1282 1747,1286 1747,1287 1746,1288 1745,1288 1744,1287 1744,1286 1740,1282 1740,1281 1736,1277 1736,1276 1732,1272 1732,1271 1728,1267 1728,1266 1724,1262 1724,1261 1720,1257 1720,1256 1717,1253 1717,1252 1713,1248 1713,1247 1709,1243 1709,1242 1705,1238 1705,1237 1701,1233 1701,1232 1697,1228 1697,1227 1693,1223 1693,1222 1689,1218 1689,1217 1686,1214 1686,1213 1682,1209 1682,1208 1678,1204 1678,1203 1674,1199 1674,1198 1670,1194 1670,1193 1666,1189 1666,1188 1662,1184 1662,1183 1658,1179 1658,1178 1655,1175 1655,1174 1650,1169" /><polygon fill="black" points="1240,1169 1239,1170 1239,1269 1240,1270 1240,1272 1239,1273 1239,1370 1240,1371 1239,1372 1239,1471 1240,1472 1305,1472 1305,1273 1306,1272 1311,1277 1311,1278 1317,1284 1317,1285 1322,1290 1322,1291 1327,1296 1327,1297 1332,1302 1332,1303 1338,1309 1338,1310 1343,1315 1343,1316 1348,1321 1348,1322 1354,1328 1354,1329 1359,1334 1359,1335 1364,1340 1364,1341 1369,1346 1369,1347 1375,1353 1375,1354 1380,1359 1380,1360 1385,1365 1385,1366 1390,1371 1390,1372 1396,1378 1396,1379 1401,1384 1401,1385 1406,1390 1406,1391 1412,1397 1412,1398 1417,1403 1417,1404 1422,1409 1422,1410 1427,1415 1427,1416 1433,1422 1433,1423 1438,1428 1438,1429 1443,1434 1443,1435 1448,1440 1448,1441 1454,1447 1454,1448 1459,1453 1459,1454 1464,1459 1464,1460 1469,1465 1469,1466 1475,1472 1542,1472 1542,1169 1476,1169 1476,1368 1475,1369 1470,1364 1470,1363 1465,1358 1465,1357 1460,1352 1460,1351 1455,1346 1455,1345 1449,1339 1449,1338 1444,1333 1444,1332 1439,1327 1439,1326 1434,1321 1434,1320 1429,1315 1429,1314 1423,1308 1423,1307 1418,1302 1418,1301 1413,1296 1413,1295 1408,1290 1408,1289 1403,1284 1403,1283 1397,1277 1397,1276 1391,1270 1391,1269 1387,1265 1387,1264 1382,1259 1382,1258 1377,1253 1377,1252 1371,1246 1371,1245 1366,1240 1366,1239 1361,1234 1361,1233 1356,1228 1356,1227 1351,1222 1351,1221 1345,1215 1345,1214 1340,1209 1340,1208 1335,1203 1335,1202 1330,1197 1330,1196 1324,1190 1324,1189 1319,1184 1319,1183 1314,1178 1314,1177 1309,1172 1309,1171 1307,1169" /><polygon fill="black" points="948,1169 947,1170 941,1170 940,1171 936,1171 935,1172 933,1172 932,1173 930,1173 929,1174 928,1174 927,1175 925,1175 924,1176 923,1176 921,1178 920,1178 919,1179 918,1179 915,1182 914,1182 904,1192 904,1193 901,1196 901,1197 899,1199 899,1200 898,1201 898,1202 897,1203 897,1204 896,1205 896,1206 895,1207 895,1209 894,1210 894,1212 893,1213 893,1216 892,1217 892,1221 891,1222 891,1419 892,1420 892,1425 893,1426 893,1429 894,1430 894,1431 895,1432 895,1434 896,1435 896,1436 897,1437 897,1438 898,1439 898,1440 899,1441 899,1442 900,1443 900,1444 903,1447 903,1448 914,1459 915,1459 918,1462 919,1462 920,1463 921,1463 923,1465 924,1465 925,1466 926,1466 927,1467 928,1467 929,1468 932,1468 933,1469 935,1469 936,1470 939,1470 940,1471 946,1471 947,1472 1138,1472 1139,1471 1144,1471 1145,1470 1149,1470 1150,1469 1152,1469 1153,1468 1155,1468 1156,1467 1157,1467 1158,1466 1159,1466 1160,1465 1161,1465 1163,1463 1164,1463 1165,1462 1166,1462 1169,1459 1170,1459 1180,1449 1180,1448 1183,1445 1183,1444 1184,1443 1184,1442 1186,1440 1186,1439 1187,1438 1187,1437 1188,1436 1188,1435 1189,1434 1189,1432 1190,1431 1190,1429 1191,1428 1191,1425 1192,1424 1192,1420 1193,1419 1193,1222 1192,1221 1192,1217 1191,1216 1191,1213 1190,1212 1190,1210 1189,1209 1189,1208 1188,1207 1188,1206 1187,1205 1187,1203 1185,1201 1185,1200 1184,1199 1184,1198 1181,1195 1181,1194 1175,1188 1175,1187 1171,1183 1170,1183 1167,1180 1166,1180 1164,1178 1163,1178 1162,1177 1161,1177 1160,1176 1159,1176 1158,1175 1157,1175 1156,1174 1155,1174 1154,1173 1152,1173 1151,1172 1149,1172 1148,1171 1144,1171 1143,1170 1137,1170 1136,1169" /><polygon fill="black" points="542,1169 542,1472 607,1472 607,1272 608,1271 611,1274 611,1275 616,1280 616,1281 621,1286 621,1287 627,1293 627,1294 632,1299 632,1300 637,1305 637,1306 642,1311 642,1312 648,1318 648,1319 653,1324 653,1325 658,1330 658,1331 664,1337 664,1338 669,1343 669,1344 674,1349 674,1350 679,1355 679,1356 685,1362 685,1363 690,1368 690,1369 695,1374 695,1375 700,1380 700,1381 706,1387 706,1388 711,1393 711,1394 716,1399 716,1400 721,1405 721,1406 727,1412 727,1413 732,1418 732,1419 737,1424 737,1425 743,1431 743,1432 748,1437 748,1438 753,1443 753,1444 758,1449 758,1450 764,1456 764,1457 769,1462 769,1463 774,1468 774,1469 777,1472 844,1472 844,1169 779,1169 778,1170 778,1368 777,1369 775,1367 775,1366 770,1361 770,1360 765,1355 765,1354 759,1348 759,1347 754,1342 754,1341 749,1336 749,1335 744,1330 744,1329 739,1324 739,1323 733,1317 733,1316 728,1311 728,1310 723,1305 723,1304 718,1299 718,1298 712,1292 712,1291 707,1286 707,1285 702,1280 702,1279 697,1274 697,1273 692,1268 692,1267 686,1261 686,1260 681,1255 681,1254 676,1249 676,1248 671,1243 671,1242 666,1237 666,1236 660,1230 660,1229 655,1224 655,1223 650,1218 650,1217 645,1212 645,1211 640,1206 640,1205 634,1199 634,1198 629,1193 629,1192 624,1187 624,1186 619,1181 619,1180 613,1174 613,1173 609,1169" /><polygon fill="black" points="249,1169 248,1170 241,1170 240,1171 237,1171 236,1172 234,1172 233,1173 231,1173 230,1174 228,1174 227,1175 226,1175 225,1176 224,1176 223,1177 222,1177 220,1179 219,1179 217,1181 216,1181 204,1193 204,1194 201,1197 201,1198 200,1199 200,1200 198,1202 198,1204 197,1205 197,1206 196,1207 196,1208 195,1209 195,1211 194,1212 194,1215 193,1216 193,1219 192,1220 192,1472 257,1472 257,1375 258,1374 427,1374 428,1375 428,1472 494,1472 494,1224 493,1223 493,1218 492,1217 492,1214 491,1213 491,1211 490,1210 490,1208 489,1207 489,1206 488,1205 488,1204 487,1203 487,1202 486,1201 486,1200 484,1198 484,1197 481,1194 481,1193 469,1181 468,1181 466,1179 465,1179 463,1177 462,1177 461,1176 460,1176 459,1175 458,1175 457,1174 456,1174 455,1173 453,1173 452,1172 449,1172 448,1171 445,1171 444,1170 438,1170 437,1169" /></svg>